<?xml version="1.0" encoding="UTF-8"?>
<svg xmlns="http://www.w3.org/2000/svg" xmlns:xlink="http://www.w3.org/1999/xlink" viewBox="0 0 64 64" width="64px" height="64px">
<defs>
<linearGradient id="linear0" gradientUnits="userSpaceOnUse" x1="112.999046" y1="111.483078" x2="112.999046" y2="160.972717" gradientTransform="matrix(0.283186,0,0,0.283186,0,0)">
<stop offset="0" style="stop-color:rgb(10.196079%,42.745098%,100%);stop-opacity:1;"/>
<stop offset="1" style="stop-color:rgb(78.431374%,13.333334%,100%);stop-opacity:1;"/>
</linearGradient>
<linearGradient id="linear1" gradientUnits="userSpaceOnUse" x1="118.35688" y1="79.982048" x2="118.35688" y2="120.211082" gradientTransform="matrix(0.283186,0,0,0.283186,0,0)">
<stop offset="0" style="stop-color:rgb(54.11765%,70.588237%,100%);stop-opacity:1;"/>
<stop offset="1" style="stop-color:rgb(89.411765%,57.254905%,100%);stop-opacity:1;"/>
</linearGradient>
</defs>
<g id="surface111602764">
<path style=" stroke:none;fill-rule:nonzero;fill:rgb(100%,100%,100%);fill-opacity:1;" d="M 17.40625 56.320312 C 12.035156 56.320312 7.679688 51.964844 7.679688 46.59375 L 7.679688 17.40625 C 7.679688 12.035156 12.035156 7.679688 17.40625 7.679688 L 46.59375 7.679688 C 51.964844 7.679688 56.320312 12.035156 56.320312 17.40625 L 56.320312 46.59375 C 56.320312 51.964844 51.964844 56.320312 46.59375 56.320312 Z M 17.40625 56.320312 "/>
<path style=" stroke:none;fill-rule:nonzero;fill:url(#linear0);" d="M 21.019531 33.316406 C 17.625 31.660156 16.4375 31.449219 13.804688 31.617188 C 11.175781 31.789062 11.175781 33.105469 11.8125 33.144531 C 12.449219 33.1875 12.617188 33.230469 12.617188 33.230469 L 12.746094 32.933594 L 11.980469 32.59375 C 11.980469 32.59375 15.289062 31.746094 19.40625 33.742188 C 23.519531 35.734375 24.582031 38.324219 23.4375 39.59375 C 22.289062 40.867188 20.296875 41.503906 17.835938 40.953125 C 17.792969 39.210938 17.878906 37.941406 17.878906 37.941406 C 17.878906 37.941406 20.167969 37.855469 20.765625 38.277344 C 21.359375 38.703125 20.847656 38.957031 20.46875 39.085938 C 21.019531 39.421875 21.445312 39.550781 21.824219 39.085938 C 22.207031 38.617188 22.632812 36.625 17.964844 36.75 C 17.878906 35.945312 18.132812 35.394531 17.457031 34.585938 C 16.777344 33.78125 16.777344 36.792969 16.777344 36.792969 C 16.777344 36.792969 15.039062 37.046875 13.59375 38.066406 C 12.152344 39.085938 16.566406 41.546875 16.566406 41.546875 C 16.566406 41.546875 16.648438 42.648438 17.285156 42.773438 C 17.921875 42.902344 17.878906 41.96875 17.878906 41.96875 C 17.878906 41.96875 21.695312 43.074219 24.242188 40.824219 C 26.789062 38.574219 24.414062 34.96875 21.019531 33.316406 Z M 16.605469 40.65625 C 16.605469 40.65625 15.164062 40.058594 14.359375 39.339844 C 13.550781 38.617188 13.804688 38.492188 14.1875 38.40625 C 14.570312 38.320312 16.054688 37.941406 16.691406 37.941406 Z M 25.898438 37.007812 C 25.898438 37.007812 25.683594 39.464844 25.769531 40.996094 C 25.8125 41.632812 26.832031 41.757812 26.832031 41.121094 C 26.832031 40.484375 26.789062 37.941406 26.703125 37.429688 C 26.617188 36.921875 26.152344 36.496094 25.898438 37.007812 Z M 31.667969 36.710938 C 31.667969 36.710938 29.332031 36.199219 27.765625 37.21875 C 27 37.726562 27.210938 38.660156 27.636719 38.703125 C 28.058594 38.746094 30.222656 38.832031 30.734375 39.171875 C 31.242188 39.507812 31.371094 39.765625 30.816406 40.101562 C 30.265625 40.441406 29.035156 40.613281 28.527344 40.441406 C 28.015625 40.273438 27.847656 39.382812 28.78125 39.847656 C 29.714844 40.316406 31.410156 39.761719 30.265625 39.382812 C 29.121094 39 28.1875 39.085938 27.59375 39.507812 C 27 39.933594 27.804688 40.824219 28.484375 41.121094 C 29.164062 41.417969 30.4375 41.503906 31.199219 41.035156 C 31.960938 40.570312 32.34375 38.789062 31.113281 38.492188 C 29.882812 38.195312 29.121094 38.238281 28.570312 38.152344 C 28.015625 38.066406 28.273438 37.855469 29.164062 37.769531 C 30.054688 37.683594 30.691406 37.640625 31.453125 37.515625 C 32.21875 37.386719 32.261719 36.835938 31.667969 36.710938 Z M 34.804688 37.347656 C 34.890625 37.726562 35.230469 39.171875 35.230469 39.765625 C 34.804688 39.128906 34.128906 37.855469 33.535156 37.261719 C 32.9375 36.667969 32.769531 37.175781 32.769531 37.175781 C 32.769531 37.175781 32.175781 39.339844 32.347656 40.742188 C 32.515625 42.140625 33.238281 41.164062 33.28125 40.742188 C 33.320312 40.316406 33.40625 38.917969 33.40625 38.535156 C 33.789062 39.382812 34.382812 40.359375 34.851562 40.824219 C 35.316406 41.292969 35.785156 40.996094 35.953125 40.570312 C 36.125 40.148438 36.675781 37.855469 35.359375 36.332031 C 34.042969 34.800781 34.722656 36.964844 34.804688 37.347656 Z M 39.34375 39.933594 C 38.878906 39.976562 37.519531 40.1875 37.519531 40.1875 L 37.816406 39.296875 C 37.816406 39.296875 38.707031 39.339844 39.429688 39.253906 C 40.148438 39.171875 39.640625 38.363281 39.386719 38.363281 C 39.132812 38.363281 38.199219 38.363281 38.199219 38.363281 L 38.414062 37.769531 C 38.414062 37.769531 39.980469 37.726562 40.492188 37.640625 C 41 37.558594 40.195312 36.707031 39.597656 36.664062 C 39.003906 36.625 37.734375 36.792969 36.882812 36.960938 C 36.035156 37.132812 37.4375 37.769531 37.4375 37.769531 C 37.4375 37.769531 37.308594 38.191406 37.140625 38.488281 C 36.628906 38.574219 36.671875 38.871094 36.84375 39.253906 C 36.503906 40.144531 36.332031 41.246094 37.308594 41.585938 C 38.285156 41.925781 39.429688 41.035156 39.898438 40.652344 C 40.363281 40.269531 39.8125 39.890625 39.34375 39.933594 Z M 42.949219 37.429688 C 42.3125 38.066406 41.210938 39.722656 41.210938 39.722656 C 41.339844 38.617188 41.636719 38.320312 42.316406 37.21875 C 42.894531 36.277344 41.976562 36.625 41.976562 36.625 C 41.976562 36.625 39.8125 38.449219 40.746094 40.527344 C 40.109375 42.097656 39.089844 44.347656 40.574219 45.535156 C 40.957031 45.789062 40.828125 45.027344 40.957031 44.601562 C 41.085938 44.175781 41.507812 42.011719 41.933594 41.417969 C 42.953125 41.335938 44.777344 40.953125 45.074219 38.195312 C 45.199219 36.414062 43.585938 36.792969 42.949219 37.429688 Z M 44.265625 38.832031 C 43.84375 39.976562 42.398438 40.144531 42.398438 40.144531 C 42.398438 40.144531 43.332031 38.617188 43.800781 38.195312 C 44.265625 37.769531 44.691406 37.683594 44.265625 38.832031 Z M 28.484375 34.96875 C 29.332031 34.121094 29.714844 32.550781 28.230469 32.636719 C 28.230469 32.636719 27.679688 31.914062 26.492188 32.253906 C 25.304688 32.59375 23.820312 34.164062 24.878906 35.179688 C 24.878906 35.648438 25.007812 36.539062 25.644531 35.734375 C 26.320312 36.03125 27.636719 35.820312 28.484375 34.96875 Z M 25.261719 34.503906 C 25.132812 33.867188 25.472656 33.273438 26.574219 33.058594 C 26.574219 33.0625 25.429688 33.992188 25.261719 34.503906 Z M 27.804688 33.441406 C 28.992188 32.976562 28.613281 34.121094 27.976562 34.589844 C 27.339844 35.054688 26.703125 35.183594 25.941406 34.96875 C 25.941406 34.96875 26.617188 33.910156 27.804688 33.441406 Z M 52.398438 37.941406 L 49.84375 37.941406 C 49.789062 37.097656 49.691406 36.195312 49.503906 35.347656 C 49.492188 35.300781 49.453125 35.265625 49.40625 35.261719 C 49.125 35.238281 49.074219 35.253906 48.734375 35.261719 C 48.640625 35.265625 48.574219 35.351562 48.597656 35.441406 C 48.703125 35.832031 48.808594 36.828125 48.859375 37.941406 L 46.433594 37.941406 C 46.359375 37.941406 46.292969 38 46.289062 38.074219 L 46.226562 38.71875 C 46.222656 38.820312 46.308594 38.90625 46.414062 38.894531 L 48.886719 38.902344 C 48.902344 39.8125 48.875 40.710938 48.78125 41.347656 C 48.769531 41.410156 48.820312 41.464844 48.882812 41.46875 C 49.273438 41.492188 49.570312 41.5 49.71875 41.5 C 49.777344 41.503906 49.824219 41.457031 49.832031 41.398438 C 49.851562 41.089844 49.910156 40.117188 49.882812 38.90625 L 52.394531 38.914062 C 52.472656 38.914062 52.535156 38.851562 52.535156 38.773438 L 52.535156 38.078125 C 52.539062 38.003906 52.476562 37.941406 52.398438 37.941406 Z M 52.398438 37.941406 "/>
<path style=" stroke:none;fill-rule:nonzero;fill:url(#linear1);" d="M 32.804688 22.648438 C 26.433594 22.648438 20.875 26.015625 17.914062 30.992188 L 18.855469 31.292969 C 21.675781 26.703125 26.867188 23.613281 32.804688 23.613281 C 39.867188 23.613281 45.886719 27.976562 48.101562 34.042969 L 49.121094 34.042969 C 46.871094 27.4375 40.410156 22.648438 32.804688 22.648438 Z M 32.804688 22.648438 "/>
</g>
</svg>
